<mxfile host="app.diagrams.net" modified="2021-03-05T20:17:13.779Z" agent="5.0 (X11; CrOS x86_64 13597.94.0) AppleWebKit/537.36 (KHTML, like Gecko) Chrome/88.0.4324.186 Safari/537.36" etag="XMsSrNg5y7oT-hODfJkT" version="14.4.4" type="github">
  <diagram id="C5RBs43oDa-KdzZeNtuy" name="Page-1">
    <mxGraphModel dx="868" dy="474" grid="1" gridSize="10" guides="1" tooltips="1" connect="1" arrows="1" fold="1" page="1" pageScale="1" pageWidth="1169" pageHeight="827" math="0" shadow="0">
      <root>
        <mxCell id="WIyWlLk6GJQsqaUBKTNV-0" />
        <mxCell id="WIyWlLk6GJQsqaUBKTNV-1" parent="WIyWlLk6GJQsqaUBKTNV-0" />
        <mxCell id="varcEexALoRR3PXCzrGx-5" style="edgeStyle=orthogonalEdgeStyle;rounded=0;orthogonalLoop=1;jettySize=auto;html=1;" edge="1" parent="WIyWlLk6GJQsqaUBKTNV-1" source="varcEexALoRR3PXCzrGx-1" target="varcEexALoRR3PXCzrGx-4">
          <mxGeometry relative="1" as="geometry">
            <Array as="points">
              <mxPoint x="400" y="500" />
              <mxPoint x="400" y="500" />
            </Array>
          </mxGeometry>
        </mxCell>
        <mxCell id="varcEexALoRR3PXCzrGx-1" value="Start" style="ellipse;whiteSpace=wrap;html=1;" vertex="1" parent="WIyWlLk6GJQsqaUBKTNV-1">
          <mxGeometry x="340" y="410" width="120" height="90" as="geometry" />
        </mxCell>
        <mxCell id="varcEexALoRR3PXCzrGx-7" value="yes" style="edgeStyle=orthogonalEdgeStyle;rounded=0;orthogonalLoop=1;jettySize=auto;html=1;" edge="1" parent="WIyWlLk6GJQsqaUBKTNV-1" source="varcEexALoRR3PXCzrGx-4" target="varcEexALoRR3PXCzrGx-6">
          <mxGeometry relative="1" as="geometry" />
        </mxCell>
        <mxCell id="varcEexALoRR3PXCzrGx-15" value="No" style="edgeStyle=orthogonalEdgeStyle;rounded=0;orthogonalLoop=1;jettySize=auto;html=1;entryX=0.5;entryY=0;entryDx=0;entryDy=0;" edge="1" parent="WIyWlLk6GJQsqaUBKTNV-1" source="varcEexALoRR3PXCzrGx-4" target="varcEexALoRR3PXCzrGx-16">
          <mxGeometry relative="1" as="geometry">
            <mxPoint x="680" y="610" as="targetPoint" />
          </mxGeometry>
        </mxCell>
        <mxCell id="varcEexALoRR3PXCzrGx-4" value="Program Does Not &lt;br&gt;Work" style="rhombus;whiteSpace=wrap;html=1;" vertex="1" parent="WIyWlLk6GJQsqaUBKTNV-1">
          <mxGeometry x="320" y="560" width="160" height="80" as="geometry" />
        </mxCell>
        <mxCell id="varcEexALoRR3PXCzrGx-12" style="edgeStyle=orthogonalEdgeStyle;rounded=0;orthogonalLoop=1;jettySize=auto;html=1;" edge="1" parent="WIyWlLk6GJQsqaUBKTNV-1" source="varcEexALoRR3PXCzrGx-6" target="varcEexALoRR3PXCzrGx-11">
          <mxGeometry relative="1" as="geometry" />
        </mxCell>
        <mxCell id="varcEexALoRR3PXCzrGx-6" value="debug it" style="whiteSpace=wrap;html=1;aspect=fixed;" vertex="1" parent="WIyWlLk6GJQsqaUBKTNV-1">
          <mxGeometry x="360" y="680" width="80" height="80" as="geometry" />
        </mxCell>
        <mxCell id="varcEexALoRR3PXCzrGx-10" value="End" style="ellipse;whiteSpace=wrap;html=1;" vertex="1" parent="WIyWlLk6GJQsqaUBKTNV-1">
          <mxGeometry x="590" y="810" width="120" height="80" as="geometry" />
        </mxCell>
        <mxCell id="varcEexALoRR3PXCzrGx-13" value="Yes" style="edgeStyle=orthogonalEdgeStyle;rounded=0;orthogonalLoop=1;jettySize=auto;html=1;entryX=0;entryY=0.25;entryDx=0;entryDy=0;" edge="1" parent="WIyWlLk6GJQsqaUBKTNV-1" source="varcEexALoRR3PXCzrGx-11" target="varcEexALoRR3PXCzrGx-16">
          <mxGeometry relative="1" as="geometry">
            <mxPoint x="560" y="710" as="targetPoint" />
          </mxGeometry>
        </mxCell>
        <mxCell id="varcEexALoRR3PXCzrGx-14" value="No" style="edgeStyle=orthogonalEdgeStyle;rounded=0;orthogonalLoop=1;jettySize=auto;html=1;exitX=1;exitY=0;exitDx=0;exitDy=0;entryX=1;entryY=0.5;entryDx=0;entryDy=0;" edge="1" parent="WIyWlLk6GJQsqaUBKTNV-1" source="varcEexALoRR3PXCzrGx-11" target="varcEexALoRR3PXCzrGx-6">
          <mxGeometry relative="1" as="geometry" />
        </mxCell>
        <mxCell id="varcEexALoRR3PXCzrGx-11" value="Does It &lt;br&gt;work?" style="rhombus;whiteSpace=wrap;html=1;" vertex="1" parent="WIyWlLk6GJQsqaUBKTNV-1">
          <mxGeometry x="360" y="810" width="80" height="80" as="geometry" />
        </mxCell>
        <mxCell id="varcEexALoRR3PXCzrGx-17" style="edgeStyle=orthogonalEdgeStyle;rounded=0;orthogonalLoop=1;jettySize=auto;html=1;" edge="1" parent="WIyWlLk6GJQsqaUBKTNV-1" source="varcEexALoRR3PXCzrGx-16" target="varcEexALoRR3PXCzrGx-10">
          <mxGeometry relative="1" as="geometry" />
        </mxCell>
        <mxCell id="varcEexALoRR3PXCzrGx-16" value="Run It" style="whiteSpace=wrap;html=1;aspect=fixed;" vertex="1" parent="WIyWlLk6GJQsqaUBKTNV-1">
          <mxGeometry x="610" y="660" width="80" height="80" as="geometry" />
        </mxCell>
      </root>
    </mxGraphModel>
  </diagram>
</mxfile>
